<svg width="140" height="30" viewBox="0 0 140 30" fill="none" xmlns="http://www.w3.org/2000/svg">
<g id="Logo" clip-path="url(#clip0_2445_5)">
<path id="t" d="M139.752 22.4785V25.9431H136.846C133.744 25.8456 132.087 24.1709 132.087 21.0253V13.1127H130.058V10.0734H132.087V6.6709H136.376V10.038H139.654V13.0684H136.376V20.6C136.376 21.619 136.58 22.4342 138.148 22.4342L139.752 22.4785Z" fill="#111111"/>
<path id="e" d="M112.966 18.0393V17.8089C112.919 16.7898 113.075 15.7716 113.423 14.8126C113.77 13.8535 114.304 12.9726 114.993 12.2202C115.682 11.4679 116.513 10.8589 117.438 10.4282C118.362 9.99743 119.363 9.75345 120.382 9.71021C120.586 9.71021 120.799 9.71021 121.003 9.71021C125.052 9.71021 128.605 12.0672 128.605 17.6849V18.8811H117.352C117.467 21.4684 118.867 22.9305 121.224 22.9305C123.253 22.9305 124.201 22.0444 124.476 20.7507H128.525C128.029 24.1267 125.335 26.0051 121.073 26.0051C116.395 25.9697 112.966 23.0102 112.966 18.0393ZM124.387 16.1697C124.237 13.8127 123.049 12.6786 120.985 12.6786C118.92 12.6786 117.733 13.9545 117.441 16.1697H124.387Z" fill="#111111"/>
<path id="e_2" d="M95.457 18.0393V17.8089C95.4105 16.7913 95.5651 15.7744 95.9119 14.8165C96.2587 13.8586 96.7908 12.9784 97.478 12.2263C98.1651 11.4741 98.9937 10.8648 99.9165 10.4331C100.839 10.0014 101.838 9.75572 102.856 9.71021C103.059 9.71021 103.272 9.71021 103.476 9.71021C107.525 9.71021 111.087 12.0672 111.087 17.6849V18.8811H99.843C99.9582 21.4684 101.358 22.9305 103.715 22.9305C105.744 22.9305 106.692 22.0444 106.967 20.7507H111.016C110.511 24.1267 107.818 26.0051 103.556 26.0051C98.8861 25.9697 95.457 23.0102 95.457 18.0393ZM106.878 16.1697C106.728 13.8127 105.541 12.6786 103.476 12.6786C101.411 12.6786 100.259 13.99 99.9316 16.1608L106.878 16.1697Z" fill="#111111"/>
<path id="w" d="M70.8861 10.0378H75.4228L78.1962 20.5467L81.2355 10.0378H84.7798L87.5266 20.5467L90.4507 10.0378H94.6064L89.6798 25.6505H85.4266L82.7684 15.8505L79.9241 25.6505H75.6178L70.8861 10.0378Z" fill="#111111"/>
<path id="s" d="M56.4696 20.7416H60.519C60.7051 22.1505 61.4051 22.9568 63.2658 22.9568C64.9316 22.9568 65.7025 22.3277 65.7025 21.2556C65.7025 20.1834 64.8164 19.7315 62.5481 19.4125C58.3924 18.7834 56.7886 17.5872 56.7886 14.5391C56.7886 11.2872 59.7658 9.67456 62.9911 9.67456C66.4557 9.67456 69.0696 10.9328 69.4418 14.5214H65.4456C65.4201 14.244 65.3398 13.9743 65.2095 13.7281C65.0792 13.4819 64.9014 13.2639 64.6864 13.0867C64.4714 12.9096 64.2234 12.7768 63.9567 12.6961C63.6901 12.6153 63.4101 12.5882 63.1329 12.6163H63C61.6 12.6163 60.7848 13.272 60.7848 14.229C60.7848 15.186 61.538 15.6024 63.824 15.9303C67.705 16.5151 69.8759 17.4986 69.8759 20.8391C69.8759 24.1796 67.4215 25.9695 63.3101 25.9695C59.1987 25.9695 56.5848 24.1176 56.4696 20.7416Z" fill="#111111"/>
<path id="n" d="M39.262 10.0379H43.5506V12.5101C44.034 11.6027 44.7677 10.8531 45.6646 10.3505C46.5615 9.84784 47.5838 9.61326 48.6101 9.67461C51.6494 9.67461 53.8557 11.5265 53.8557 15.7531V25.686H49.6202V16.3733C49.6202 14.2556 48.7962 13.2455 46.8823 13.2455C46.4777 13.2103 46.0703 13.2553 45.6832 13.378C45.2961 13.5007 44.9371 13.6986 44.6267 13.9604C44.3163 14.2222 44.0607 14.5427 43.8745 14.9036C43.6883 15.2645 43.5752 15.6585 43.5418 16.0632C43.5196 16.2516 43.5196 16.4419 43.5418 16.6303V25.6506H39.262V10.0379Z" fill="#111111"/>
<path id="i" d="M30.9861 6.11263C30.9706 5.68504 31.0822 5.26245 31.307 4.89837C31.5318 4.53429 31.8595 4.24508 32.2487 4.06737C32.638 3.88966 33.0712 3.83143 33.4935 3.90007C33.9158 3.9687 34.3083 4.1611 34.6212 4.45291C34.9341 4.74472 35.1534 5.12283 35.2514 5.53935C35.3493 5.95587 35.3214 6.39207 35.1713 6.79274C35.0211 7.19341 34.7555 7.54052 34.4079 7.79012C34.0604 8.03973 33.6467 8.1806 33.219 8.19491H33.1393C32.8739 8.21171 32.6077 8.17594 32.3562 8.08966C32.1046 8.00337 31.8726 7.86827 31.6734 7.6921C31.4741 7.51592 31.3117 7.30215 31.1952 7.06304C31.0788 6.82393 31.0108 6.56419 30.995 6.29871C30.9876 6.23697 30.9846 6.17479 30.9861 6.11263ZM30.9861 10.038H35.319V25.6506H31.0038L30.9861 10.038Z" fill="#111111"/>
<path id="F" d="M14.6557 4.31396H28.3544V8.09751H19.4937V13.7418H26.5114V17.3836H19.4848V25.6507H14.6557V4.31396Z" fill="#111111"/>
<path id="{" d="M6.38861 11.2962C6.38861 12.6341 6.38861 14.2645 4.54557 14.9291C6.43291 15.5759 6.38861 16.9493 6.38861 18.3848V23.7012C6.38861 24.7114 6.7962 25.3228 7.52279 25.4734C7.68244 25.5273 7.85064 25.5513 8.01899 25.5443H9.79114V29.0886H6.86709C3.7481 29.0886 2.02911 27.3164 2.02911 24.0291V17.7379C2.00699 17.415 1.86458 17.112 1.63 16.8889C1.39541 16.6658 1.08571 16.5388 0.762025 16.5329H0V13.4228H0.762025C1.09216 13.4184 1.40796 13.2871 1.64388 13.0561C1.87981 12.8252 2.01776 12.5122 2.02911 12.1822V5.8025C2.02911 2.56832 3.71266 0.822754 6.86709 0.822754H9.81772V4.31389H8.04557C7.87702 4.31438 7.70958 4.34129 7.54937 4.39364C6.82278 4.57972 6.41519 5.18225 6.41519 6.16579L6.38861 11.2962Z" fill="#111111"/>
</g>
<defs>
<clipPath id="clip0_2445_5">
<rect width="140" height="28.3544" fill="white" transform="translate(0 0.822754)"/>
</clipPath>
</defs>
</svg>
