<svg width="131" height="27" viewBox="0 0 131 27" fill="none" xmlns="http://www.w3.org/2000/svg">
<g id="Logo" clip-path="url(#clip0_2445_58)">
<path id="t" d="M130.45 20.6748V23.8919H127.752C124.872 23.8014 123.333 22.2463 123.333 19.3254V11.978H121.449V9.15583H123.333V5.99634H127.316V9.12292H130.36V11.9368H127.316V18.9305C127.316 19.8767 127.505 20.6337 128.961 20.6337L130.45 20.6748Z" fill="white"/>
<path id="e" d="M105.578 16.5525V16.3386C105.535 15.3923 105.679 14.4468 106.002 13.5563C106.325 12.6657 106.82 11.8477 107.46 11.1491C108.1 10.4505 108.871 9.88498 109.73 9.48502C110.589 9.08507 111.518 8.85852 112.464 8.81836C112.654 8.81836 112.851 8.81836 113.04 8.81836C116.8 8.81836 120.1 11.007 120.1 16.2234V17.3342H109.65C109.757 19.7367 111.057 21.0943 113.246 21.0943C115.13 21.0943 116.01 20.2715 116.266 19.0703H120.026C119.565 22.2051 117.064 23.9494 113.106 23.9494C108.762 23.9165 105.578 21.1684 105.578 16.5525ZM116.183 14.8165C116.043 12.6279 114.941 11.5747 113.024 11.5747C111.107 11.5747 110.004 12.7595 109.733 14.8165H116.183Z" fill="white"/>
<path id="e_2" d="M89.3193 16.5525V16.3386C89.2762 15.3936 89.4198 14.4494 89.7418 13.5599C90.0638 12.6704 90.5579 11.8531 91.196 11.1547C91.834 10.4563 92.6035 9.89048 93.4603 9.4896C94.3171 9.08871 95.2446 8.86062 96.1896 8.81836C96.3788 8.81836 96.5763 8.81836 96.7655 8.81836C100.526 8.81836 103.833 11.007 103.833 16.2234V17.3342H93.3921C93.4991 19.7367 94.7991 21.0943 96.9877 21.0943C98.8719 21.0943 99.7522 20.2715 100.007 19.0703H103.767C103.298 22.2051 100.797 23.9494 96.8396 23.9494C92.5035 23.9165 89.3193 21.1684 89.3193 16.5525ZM99.925 14.8165C99.7852 12.6279 98.6826 11.5747 96.7655 11.5747C94.8484 11.5747 93.7788 12.7924 93.4744 14.8082L99.925 14.8165Z" fill="white"/>
<path id="w" d="M66.5035 9.1228H70.7162L73.2915 18.881L76.1136 9.1228H79.4048L81.9554 18.881L84.6706 9.1228H88.5295L83.9548 23.6203H80.0054L77.5371 14.5203L74.8959 23.6203H70.8972L66.5035 9.1228Z" fill="white"/>
<path id="s" d="M53.1168 19.0622H56.8769C57.0497 20.3705 57.6997 21.1192 59.4276 21.1192C60.9744 21.1192 61.6902 20.535 61.6902 19.5394C61.6902 18.5439 60.8674 18.1243 58.7611 17.828C54.9022 17.2439 53.413 16.1331 53.413 13.3027C53.413 10.2831 56.1776 8.78564 59.1725 8.78564C62.3896 8.78564 64.8168 9.954 65.1624 13.2863H61.4516C61.4279 13.0287 61.3534 12.7783 61.2324 12.5496C61.1114 12.321 60.9463 12.1186 60.7467 11.9541C60.547 11.7896 60.3167 11.6663 60.0691 11.5913C59.8215 11.5164 59.5615 11.4912 59.3041 11.5173H59.1807C57.8807 11.5173 57.1238 12.1262 57.1238 13.0148C57.1238 13.9034 57.8231 14.2901 59.9459 14.5945C63.5497 15.1375 65.5655 16.0508 65.5655 19.1527C65.5655 22.2546 63.2864 23.9167 59.4687 23.9167C55.651 23.9167 53.2238 22.197 53.1168 19.0622Z" fill="white"/>
<path id="n" d="M37.1383 9.12284H41.1206V11.4184C41.5694 10.5758 42.2508 9.87982 43.0836 9.41309C43.9164 8.94636 44.8657 8.72853 45.8187 8.7855C48.6408 8.7855 50.6896 10.5051 50.6896 14.4298V23.6532H46.7567V15.0057C46.7567 13.0393 45.9915 12.1013 44.2143 12.1013C43.8386 12.0686 43.4602 12.1104 43.1008 12.2243C42.7414 12.3383 42.408 12.5221 42.1198 12.7652C41.8316 13.0083 41.5942 13.3059 41.4213 13.641C41.2484 13.9761 41.1434 14.342 41.1124 14.7178C41.0918 14.8927 41.0918 15.0694 41.1124 15.2444V23.6203H37.1383V9.12284Z" fill="white"/>
<path id="i" d="M29.4535 5.47798C29.4391 5.08094 29.5428 4.68853 29.7515 4.35045C29.9602 4.01238 30.2645 3.74383 30.6259 3.57881C30.9874 3.41379 31.3896 3.35973 31.7818 3.42346C32.174 3.48719 32.5384 3.66584 32.829 3.93681C33.1195 4.20778 33.3232 4.55888 33.4141 4.94564C33.505 5.33241 33.4791 5.73746 33.3397 6.10951C33.2003 6.48156 32.9536 6.80387 32.6309 7.03565C32.3082 7.26743 31.924 7.39824 31.5269 7.41153H31.4529C31.2064 7.42713 30.9593 7.39391 30.7257 7.31379C30.4921 7.23367 30.2767 7.10822 30.0917 6.94463C29.9067 6.78104 29.7558 6.58253 29.6477 6.3605C29.5396 6.13847 29.4764 5.89728 29.4617 5.65077C29.4549 5.59344 29.4521 5.5357 29.4535 5.47798ZM29.4535 9.12292H33.4769V23.6204H29.47L29.4535 9.12292Z" fill="white"/>
<path id="F" d="M14.2896 3.80762H27.0098V7.32091H18.782V12.562H25.2984V15.9437H18.7738V23.6203H14.2896V3.80762Z" fill="white"/>
<path id="{" d="M6.613 10.2912C6.613 11.5336 6.613 13.0476 4.90161 13.6647C6.65414 14.2653 6.613 15.5406 6.613 16.8735V21.8102C6.613 22.7482 6.99148 23.3159 7.66617 23.4558C7.81442 23.5058 7.9706 23.5281 8.12693 23.5216H9.7725V26.8128H7.05731C4.1611 26.8128 2.5649 25.1672 2.5649 22.1147V16.2729C2.54436 15.973 2.41212 15.6917 2.19429 15.4845C1.97647 15.2773 1.68888 15.1594 1.38832 15.1539H0.680725V12.2659H1.38832C1.69488 12.2619 1.98811 12.14 2.20719 11.9255C2.42626 11.711 2.55436 11.4204 2.5649 11.114V5.18997C2.5649 2.1868 4.12819 0.565918 7.05731 0.565918H9.79718V3.80769H8.15161C7.9951 3.80814 7.83962 3.83313 7.69085 3.88174C7.01617 4.05453 6.63769 4.61402 6.63769 5.52731L6.613 10.2912Z" fill="white"/>
</g>
<defs>
<clipPath id="clip0_2445_58">
<rect width="130" height="26.3291" fill="white" transform="translate(0.680725 0.565918)"/>
</clipPath>
</defs>
</svg>
